<?xml version="1.0" encoding="utf-8" standalone="no"?>
<!DOCTYPE svg PUBLIC "-//W3C//DTD SVG 1.1//EN"
  "http://www.w3.org/Graphics/SVG/1.1/DTD/svg11.dtd">
<svg xmlns:xlink="http://www.w3.org/1999/xlink" width="269.291339pt" height="411.023622pt" viewBox="0 0 269.291339 411.023622" xmlns="http://www.w3.org/2000/svg" version="1.1">
 <metadata>
  <rdf:RDF xmlns:dc="http://purl.org/dc/elements/1.1/" xmlns:cc="http://creativecommons.org/ns#" xmlns:rdf="http://www.w3.org/1999/02/22-rdf-syntax-ns#">
   <cc:Work>
    <dc:type rdf:resource="http://purl.org/dc/dcmitype/StillImage"/>
    <dc:date>2026-07-16T17:46:03.431777</dc:date>
    <dc:format>image/svg+xml</dc:format>
    <dc:creator>
     <cc:Agent>
      <dc:title>Matplotlib v3.9.4, https://matplotlib.org/</dc:title>
     </cc:Agent>
    </dc:creator>
   </cc:Work>
  </rdf:RDF>
 </metadata>
 <defs>
  <style type="text/css">*{stroke-linejoin: round; stroke-linecap: butt}</style>
 </defs>
 <g id="figure_1">
  <g id="patch_1">
   <path d="M 0 411.023622 
L 269.291339 411.023622 
L 269.291339 0 
L 0 0 
z
" style="fill: #ffffff"/>
  </g>
  <g id="axes_1">
   <g id="patch_2">
    <path d="M 109.062992 103.250394 
L 259.866142 103.250394 
L 259.866142 36.992126 
L 109.062992 36.992126 
z
" style="fill: #ffffff"/>
   </g>
   <g id="matplotlib.axis_1">
    <g id="xtick_1">
     <g id="line2d_1">
      <path d="M 109.062992 103.250394 
L 109.062992 36.992126 
" clip-path="url(#pf9ede93dc2)" style="fill: none; stroke: #e7e7e7; stroke-width: 0.45; stroke-linecap: square"/>
     </g>
     <g id="line2d_2">
      <defs>
       <path id="m87bfd01bcb" d="M 0 0 
L 0 2.6 
" style="stroke: #2b2b2b; stroke-width: 0.5"/>
      </defs>
      <g>
       <use xlink:href="#m87bfd01bcb" x="109.062992" y="103.250394" style="fill: #2b2b2b; stroke: #2b2b2b; stroke-width: 0.5"/>
      </g>
     </g>
     <g id="text_1">
      <text style="fill: #2b2b2b; font: 7px 'Arial'; text-anchor: middle" x="109.062992" y="112.860862" transform="rotate(-0 109.062992 112.860862)">0</text>
     </g>
    </g>
    <g id="xtick_2">
     <g id="line2d_3">
      <path d="M 144.546086 103.250394 
L 144.546086 36.992126 
" clip-path="url(#pf9ede93dc2)" style="fill: none; stroke: #e7e7e7; stroke-width: 0.45; stroke-linecap: square"/>
     </g>
     <g id="line2d_4">
      <g>
       <use xlink:href="#m87bfd01bcb" x="144.546086" y="103.250394" style="fill: #2b2b2b; stroke: #2b2b2b; stroke-width: 0.5"/>
      </g>
     </g>
     <g id="text_2">
      <text style="fill: #2b2b2b; font: 7px 'Arial'; text-anchor: middle" x="144.546086" y="112.860862" transform="rotate(-0 144.546086 112.860862)">1</text>
     </g>
    </g>
    <g id="xtick_3">
     <g id="line2d_5">
      <path d="M 180.02918 103.250394 
L 180.02918 36.992126 
" clip-path="url(#pf9ede93dc2)" style="fill: none; stroke: #e7e7e7; stroke-width: 0.45; stroke-linecap: square"/>
     </g>
     <g id="line2d_6">
      <g>
       <use xlink:href="#m87bfd01bcb" x="180.02918" y="103.250394" style="fill: #2b2b2b; stroke: #2b2b2b; stroke-width: 0.5"/>
      </g>
     </g>
     <g id="text_3">
      <text style="fill: #2b2b2b; font: 7px 'Arial'; text-anchor: middle" x="180.02918" y="112.860862" transform="rotate(-0 180.02918 112.860862)">2</text>
     </g>
    </g>
    <g id="xtick_4">
     <g id="line2d_7">
      <path d="M 215.512274 103.250394 
L 215.512274 36.992126 
" clip-path="url(#pf9ede93dc2)" style="fill: none; stroke: #e7e7e7; stroke-width: 0.45; stroke-linecap: square"/>
     </g>
     <g id="line2d_8">
      <g>
       <use xlink:href="#m87bfd01bcb" x="215.512274" y="103.250394" style="fill: #2b2b2b; stroke: #2b2b2b; stroke-width: 0.5"/>
      </g>
     </g>
     <g id="text_4">
      <text style="fill: #2b2b2b; font: 7px 'Arial'; text-anchor: middle" x="215.512274" y="112.860862" transform="rotate(-0 215.512274 112.860862)">3</text>
     </g>
    </g>
    <g id="xtick_5">
     <g id="line2d_9">
      <path d="M 250.995368 103.250394 
L 250.995368 36.992126 
" clip-path="url(#pf9ede93dc2)" style="fill: none; stroke: #e7e7e7; stroke-width: 0.45; stroke-linecap: square"/>
     </g>
     <g id="line2d_10">
      <g>
       <use xlink:href="#m87bfd01bcb" x="250.995368" y="103.250394" style="fill: #2b2b2b; stroke: #2b2b2b; stroke-width: 0.5"/>
      </g>
     </g>
     <g id="text_5">
      <text style="fill: #2b2b2b; font: 7px 'Arial'; text-anchor: middle" x="250.995368" y="112.860862" transform="rotate(-0 250.995368 112.860862)">4</text>
     </g>
    </g>
   </g>
   <g id="matplotlib.axis_2"/>
   <g id="line2d_11">
    <path d="M 133.901158 53.392687 
L 180.02918 53.392687 
" clip-path="url(#pf9ede93dc2)" style="fill: none; stroke: #777777; stroke-width: 1.65"/>
   </g>
   <g id="line2d_12">
    <path d="M 133.901158 57.328822 
L 133.901158 49.456553 
" clip-path="url(#pf9ede93dc2)" style="fill: none; stroke: #777777; stroke-width: 1.25; stroke-linecap: square"/>
   </g>
   <g id="line2d_13">
    <path d="M 180.02918 57.328822 
L 180.02918 49.456553 
" clip-path="url(#pf9ede93dc2)" style="fill: none; stroke: #777777; stroke-width: 1.25; stroke-linecap: square"/>
   </g>
   <g id="line2d_14">
    <path d="M 155.191014 86.19381 
L 236.802131 86.19381 
" clip-path="url(#pf9ede93dc2)" style="fill: none; stroke: #777777; stroke-width: 1.1; stroke-linecap: square"/>
   </g>
   <g id="patch_3">
    <path d="M 109.062992 103.250394 
L 259.866142 103.250394 
" style="fill: none; stroke: #555555; stroke-width: 0.55; stroke-linejoin: miter; stroke-linecap: square"/>
   </g>
   <g id="text_6">
    <text style="fill: #2b2b2b; font: 7.2px 'Arial'" transform="translate(48.962507 51.561142)">Bottom-up model</text>
    <text style="fill: #2b2b2b; font: 7.2px 'Arial'" transform="translate(50.572382 58.862482)">(hyperscale mid)</text>
   </g>
   <g id="text_7">
    <text style="fill: #2b2b2b; font: 7.2px 'Arial'; text-anchor: start" x="183.57749" y="55.255687" transform="rotate(-0 183.57749 55.255687)">1.0  (0.7–2.0)</text>
   </g>
   <g id="text_8">
    <text style="fill: #2b2b2b; font: 7px 'Arial'; text-anchor: middle" x="155.191014" y="77.586313" transform="rotate(-0 155.191014 77.586313)">1.3</text>
   </g>
   <g id="text_9">
    <text style="fill: #2b2b2b; font: 7px 'Arial'; text-anchor: middle" x="197.770727" y="77.586313" transform="rotate(-0 197.770727 77.586313)">2.5</text>
   </g>
   <g id="text_10">
    <text style="fill: #2b2b2b; font: 7px 'Arial'; text-anchor: middle" x="236.802131" y="77.586313" transform="rotate(-0 236.802131 77.586313)">3.6</text>
   </g>
   <g id="text_11">
    <text style="fill: #2b2b2b; font: 7.2px 'Arial'" transform="translate(28.144382 84.320077)">Project announcements</text>
    <text style="fill: #2b2b2b; font: 7.2px 'Arial'" transform="translate(34.148507 91.705792)">(developer, projected)</text>
   </g>
   <g id="text_12">
    <text style="fill: #2b2b2b; font: 8.2px 'Arial'" transform="translate(109.062992 22.199163)">Data centres — construction</text>
    <text style="fill: #2b2b2b; font: 8.2px 'Arial'" transform="translate(109.062992 30.992126)">(peak workers/MW)</text>
   </g>
   <g id="line2d_15">
    <defs>
     <path id="mf8a6cc5f8d" d="M -3.45 3.45 
L 3.45 3.45 
L 3.45 -3.45 
L -3.45 -3.45 
z
" style="stroke: #2b2b2b; stroke-width: 0.65; stroke-linejoin: miter"/>
    </defs>
    <g clip-path="url(#pf9ede93dc2)">
     <use xlink:href="#mf8a6cc5f8d" x="144.546086" y="53.392687" style="fill: #0072b2; stroke: #2b2b2b; stroke-width: 0.65; stroke-linejoin: miter"/>
    </g>
   </g>
   <g id="line2d_16">
    <defs>
     <path id="mf0fe9132ac" d="M 0 2.95 
C 0.782349 2.95 1.532761 2.639169 2.085965 2.085965 
C 2.639169 1.532761 2.95 0.782349 2.95 0 
C 2.95 -0.782349 2.639169 -1.532761 2.085965 -2.085965 
C 1.532761 -2.639169 0.782349 -2.95 0 -2.95 
C -0.782349 -2.95 -1.532761 -2.639169 -2.085965 -2.085965 
C -2.639169 -1.532761 -2.95 -0.782349 -2.95 0 
C -2.95 0.782349 -2.639169 1.532761 -2.085965 2.085965 
C -1.532761 2.639169 -0.782349 2.95 0 2.95 
z
" style="stroke: #555555; stroke-width: 1.25"/>
    </defs>
    <g clip-path="url(#pf9ede93dc2)">
     <use xlink:href="#mf0fe9132ac" x="155.191014" y="86.19381" style="fill: #ffffff; stroke: #555555; stroke-width: 1.25"/>
    </g>
   </g>
   <g id="line2d_17">
    <g clip-path="url(#pf9ede93dc2)">
     <use xlink:href="#mf0fe9132ac" x="197.770727" y="86.19381" style="fill: #ffffff; stroke: #555555; stroke-width: 1.25"/>
    </g>
   </g>
   <g id="line2d_18">
    <g clip-path="url(#pf9ede93dc2)">
     <use xlink:href="#mf0fe9132ac" x="236.802131" y="86.19381" style="fill: #ffffff; stroke: #555555; stroke-width: 1.25"/>
    </g>
   </g>
  </g>
  <g id="axes_2">
   <g id="patch_4">
    <path d="M 109.062992 210.571118 
L 259.866142 210.571118 
L 259.866142 144.312851 
L 109.062992 144.312851 
z
" style="fill: #ffffff"/>
   </g>
   <g id="matplotlib.axis_3">
    <g id="xtick_6">
     <g id="line2d_19">
      <path d="M 109.062992 210.571118 
L 109.062992 144.312851 
" clip-path="url(#pc6254026b8)" style="fill: none; stroke: #e7e7e7; stroke-width: 0.45; stroke-linecap: square"/>
     </g>
     <g id="line2d_20">
      <g>
       <use xlink:href="#m87bfd01bcb" x="109.062992" y="210.571118" style="fill: #2b2b2b; stroke: #2b2b2b; stroke-width: 0.5"/>
      </g>
     </g>
     <g id="text_13">
      <text style="fill: #2b2b2b; font: 7px 'Arial'; text-anchor: middle" x="109.062992" y="220.181587" transform="rotate(-0 109.062992 220.181587)">0</text>
     </g>
    </g>
    <g id="xtick_7">
     <g id="line2d_21">
      <path d="M 138.063598 210.571118 
L 138.063598 144.312851 
" clip-path="url(#pc6254026b8)" style="fill: none; stroke: #e7e7e7; stroke-width: 0.45; stroke-linecap: square"/>
     </g>
     <g id="line2d_22">
      <g>
       <use xlink:href="#m87bfd01bcb" x="138.063598" y="210.571118" style="fill: #2b2b2b; stroke: #2b2b2b; stroke-width: 0.5"/>
      </g>
     </g>
     <g id="text_14">
      <text style="fill: #2b2b2b; font: 7px 'Arial'; text-anchor: middle" x="138.063598" y="220.181587" transform="rotate(-0 138.063598 220.181587)">0.25</text>
     </g>
    </g>
    <g id="xtick_8">
     <g id="line2d_23">
      <path d="M 167.064204 210.571118 
L 167.064204 144.312851 
" clip-path="url(#pc6254026b8)" style="fill: none; stroke: #e7e7e7; stroke-width: 0.45; stroke-linecap: square"/>
     </g>
     <g id="line2d_24">
      <g>
       <use xlink:href="#m87bfd01bcb" x="167.064204" y="210.571118" style="fill: #2b2b2b; stroke: #2b2b2b; stroke-width: 0.5"/>
      </g>
     </g>
     <g id="text_15">
      <text style="fill: #2b2b2b; font: 7px 'Arial'; text-anchor: middle" x="167.064204" y="220.181587" transform="rotate(-0 167.064204 220.181587)">0.5</text>
     </g>
    </g>
    <g id="xtick_9">
     <g id="line2d_25">
      <path d="M 196.064809 210.571118 
L 196.064809 144.312851 
" clip-path="url(#pc6254026b8)" style="fill: none; stroke: #e7e7e7; stroke-width: 0.45; stroke-linecap: square"/>
     </g>
     <g id="line2d_26">
      <g>
       <use xlink:href="#m87bfd01bcb" x="196.064809" y="210.571118" style="fill: #2b2b2b; stroke: #2b2b2b; stroke-width: 0.5"/>
      </g>
     </g>
     <g id="text_16">
      <text style="fill: #2b2b2b; font: 7px 'Arial'; text-anchor: middle" x="196.064809" y="220.181587" transform="rotate(-0 196.064809 220.181587)">0.75</text>
     </g>
    </g>
    <g id="xtick_10">
     <g id="line2d_27">
      <path d="M 225.065415 210.571118 
L 225.065415 144.312851 
" clip-path="url(#pc6254026b8)" style="fill: none; stroke: #e7e7e7; stroke-width: 0.45; stroke-linecap: square"/>
     </g>
     <g id="line2d_28">
      <g>
       <use xlink:href="#m87bfd01bcb" x="225.065415" y="210.571118" style="fill: #2b2b2b; stroke: #2b2b2b; stroke-width: 0.5"/>
      </g>
     </g>
     <g id="text_17">
      <text style="fill: #2b2b2b; font: 7px 'Arial'; text-anchor: middle" x="225.065415" y="220.181587" transform="rotate(-0 225.065415 220.181587)">1</text>
     </g>
    </g>
    <g id="xtick_11">
     <g id="line2d_29">
      <path d="M 254.066021 210.571118 
L 254.066021 144.312851 
" clip-path="url(#pc6254026b8)" style="fill: none; stroke: #e7e7e7; stroke-width: 0.45; stroke-linecap: square"/>
     </g>
     <g id="line2d_30">
      <g>
       <use xlink:href="#m87bfd01bcb" x="254.066021" y="210.571118" style="fill: #2b2b2b; stroke: #2b2b2b; stroke-width: 0.5"/>
      </g>
     </g>
     <g id="text_18">
      <text style="fill: #2b2b2b; font: 7px 'Arial'; text-anchor: middle" x="254.066021" y="220.181587" transform="rotate(-0 254.066021 220.181587)">1.2</text>
     </g>
    </g>
   </g>
   <g id="matplotlib.axis_4"/>
   <g id="line2d_31">
    <path d="M 126.463356 160.713412 
L 149.66384 160.713412 
" clip-path="url(#pc6254026b8)" style="fill: none; stroke: #777777; stroke-width: 1.65"/>
   </g>
   <g id="line2d_32">
    <path d="M 126.463356 164.649546 
L 126.463356 156.777277 
" clip-path="url(#pc6254026b8)" style="fill: none; stroke: #777777; stroke-width: 1.25; stroke-linecap: square"/>
   </g>
   <g id="line2d_33">
    <path d="M 149.66384 164.649546 
L 149.66384 156.777277 
" clip-path="url(#pc6254026b8)" style="fill: none; stroke: #777777; stroke-width: 1.25; stroke-linecap: square"/>
   </g>
   <g id="patch_5">
    <path d="M 109.062992 210.571118 
L 259.866142 210.571118 
" style="fill: none; stroke: #555555; stroke-width: 0.55; stroke-linejoin: miter; stroke-linecap: square"/>
   </g>
   <g id="text_19">
    <text style="fill: #2b2b2b; font: 7.2px 'Arial'; text-anchor: end" x="103.784882" y="162.574724" transform="rotate(-0 103.784882 162.574724)">Bottom-up model</text>
   </g>
   <g id="text_20">
    <text style="fill: #2b2b2b; font: 7.2px 'Arial'; text-anchor: start" x="154.303937" y="162.576412" transform="rotate(-0 154.303937 162.576412)">0.24  (0.15–0.35)</text>
   </g>
   <g id="text_21">
    <text style="fill: #2b2b2b; font: 7.2px 'Arial'" transform="translate(45.351257 191.640802)">Advocacy national</text>
    <text style="fill: #2b2b2b; font: 7.2px 'Arial'" transform="translate(46.161257 199.026517)">estimate (flagged)</text>
   </g>
   <g id="text_22">
    <text style="fill: #2b2b2b; font: 7px 'Arial'" transform="translate(220.722952 191.835781)">1.12</text>
    <text style="fill: #2b2b2b; font: 7px 'Arial'" transform="translate(196.851859 198.730475)">(≈5× model)</text>
   </g>
   <g id="text_23">
    <text style="fill: #2b2b2b; font: 8.2px 'Arial'" transform="translate(109.062992 129.519888)">Data centres — operations</text>
    <text style="fill: #2b2b2b; font: 8.2px 'Arial'" transform="translate(109.062992 138.312851)">(FTE/MW)</text>
   </g>
   <g id="line2d_34">
    <g clip-path="url(#pc6254026b8)">
     <use xlink:href="#mf8a6cc5f8d" x="136.903574" y="160.713412" style="fill: #0072b2; stroke: #2b2b2b; stroke-width: 0.65; stroke-linejoin: miter"/>
    </g>
   </g>
   <g id="line2d_35">
    <defs>
     <path id="m9bf3007a25" d="M 0 3.15 
C 0.83539 3.15 1.636677 2.818096 2.227386 2.227386 
C 2.818096 1.636677 3.15 0.83539 3.15 0 
C 3.15 -0.83539 2.818096 -1.636677 2.227386 -2.227386 
C 1.636677 -2.818096 0.83539 -3.15 0 -3.15 
C -0.83539 -3.15 -1.636677 -2.818096 -2.227386 -2.227386 
C -2.818096 -1.636677 -3.15 -0.83539 -3.15 0 
C -3.15 0.83539 -2.818096 1.636677 -2.227386 2.227386 
C -1.636677 2.818096 -0.83539 3.15 0 3.15 
z
" style="stroke: #555555; stroke-width: 1.25"/>
    </defs>
    <g clip-path="url(#pc6254026b8)">
     <use xlink:href="#m9bf3007a25" x="238.985706" y="193.514534" style="fill: #ffffff; stroke: #555555; stroke-width: 1.25"/>
    </g>
   </g>
  </g>
  <g id="axes_3">
   <g id="patch_6">
    <path d="M 109.062992 339.094488 
L 259.866142 339.094488 
L 259.866142 251.633575 
L 109.062992 251.633575 
z
" style="fill: #ffffff"/>
   </g>
   <g id="matplotlib.axis_5">
    <g id="xtick_12">
     <g id="line2d_36">
      <path d="M 109.062992 339.094488 
L 109.062992 251.633575 
" clip-path="url(#pb81123192e)" style="fill: none; stroke: #e7e7e7; stroke-width: 0.45; stroke-linecap: square"/>
     </g>
     <g id="line2d_37">
      <g>
       <use xlink:href="#m87bfd01bcb" x="109.062992" y="339.094488" style="fill: #2b2b2b; stroke: #2b2b2b; stroke-width: 0.5"/>
      </g>
     </g>
     <g id="text_24">
      <text style="fill: #2b2b2b; font: 7px 'Arial'; text-anchor: middle" x="109.062992" y="348.704957" transform="rotate(-0 109.062992 348.704957)">0</text>
     </g>
    </g>
    <g id="xtick_13">
     <g id="line2d_38">
      <path d="M 135.872441 339.094488 
L 135.872441 251.633575 
" clip-path="url(#pb81123192e)" style="fill: none; stroke: #e7e7e7; stroke-width: 0.45; stroke-linecap: square"/>
     </g>
     <g id="line2d_39">
      <g>
       <use xlink:href="#m87bfd01bcb" x="135.872441" y="339.094488" style="fill: #2b2b2b; stroke: #2b2b2b; stroke-width: 0.5"/>
      </g>
     </g>
     <g id="text_25">
      <text style="fill: #2b2b2b; font: 7px 'Arial'; text-anchor: middle" x="135.872441" y="348.704957" transform="rotate(-0 135.872441 348.704957)">2</text>
     </g>
    </g>
    <g id="xtick_14">
     <g id="line2d_40">
      <path d="M 162.68189 339.094488 
L 162.68189 251.633575 
" clip-path="url(#pb81123192e)" style="fill: none; stroke: #e7e7e7; stroke-width: 0.45; stroke-linecap: square"/>
     </g>
     <g id="line2d_41">
      <g>
       <use xlink:href="#m87bfd01bcb" x="162.68189" y="339.094488" style="fill: #2b2b2b; stroke: #2b2b2b; stroke-width: 0.5"/>
      </g>
     </g>
     <g id="text_26">
      <text style="fill: #2b2b2b; font: 7px 'Arial'; text-anchor: middle" x="162.68189" y="348.704957" transform="rotate(-0 162.68189 348.704957)">4</text>
     </g>
    </g>
    <g id="xtick_15">
     <g id="line2d_42">
      <path d="M 189.491339 339.094488 
L 189.491339 251.633575 
" clip-path="url(#pb81123192e)" style="fill: none; stroke: #e7e7e7; stroke-width: 0.45; stroke-linecap: square"/>
     </g>
     <g id="line2d_43">
      <g>
       <use xlink:href="#m87bfd01bcb" x="189.491339" y="339.094488" style="fill: #2b2b2b; stroke: #2b2b2b; stroke-width: 0.5"/>
      </g>
     </g>
     <g id="text_27">
      <text style="fill: #2b2b2b; font: 7px 'Arial'; text-anchor: middle" x="189.491339" y="348.704957" transform="rotate(-0 189.491339 348.704957)">6</text>
     </g>
    </g>
    <g id="xtick_16">
     <g id="line2d_44">
      <path d="M 216.300787 339.094488 
L 216.300787 251.633575 
" clip-path="url(#pb81123192e)" style="fill: none; stroke: #e7e7e7; stroke-width: 0.45; stroke-linecap: square"/>
     </g>
     <g id="line2d_45">
      <g>
       <use xlink:href="#m87bfd01bcb" x="216.300787" y="339.094488" style="fill: #2b2b2b; stroke: #2b2b2b; stroke-width: 0.5"/>
      </g>
     </g>
     <g id="text_28">
      <text style="fill: #2b2b2b; font: 7px 'Arial'; text-anchor: middle" x="216.300787" y="348.704957" transform="rotate(-0 216.300787 348.704957)">8</text>
     </g>
    </g>
    <g id="xtick_17">
     <g id="line2d_46">
      <path d="M 243.110236 339.094488 
L 243.110236 251.633575 
" clip-path="url(#pb81123192e)" style="fill: none; stroke: #e7e7e7; stroke-width: 0.45; stroke-linecap: square"/>
     </g>
     <g id="line2d_47">
      <g>
       <use xlink:href="#m87bfd01bcb" x="243.110236" y="339.094488" style="fill: #2b2b2b; stroke: #2b2b2b; stroke-width: 0.5"/>
      </g>
     </g>
     <g id="text_29">
      <text style="fill: #2b2b2b; font: 7px 'Arial'; text-anchor: middle" x="243.110236" y="348.704957" transform="rotate(-0 243.110236 348.704957)">10</text>
     </g>
    </g>
   </g>
   <g id="matplotlib.axis_6"/>
   <g id="patch_7">
    <path d="M 109.062992 339.094488 
L 259.866142 339.094488 
" style="fill: none; stroke: #555555; stroke-width: 0.55; stroke-linejoin: miter; stroke-linecap: square"/>
   </g>
   <g id="text_30">
    <text style="fill: #2b2b2b; font: 7.2px 'Arial'; text-anchor: end" x="103.784882" y="267.531824" transform="rotate(-0 103.784882 267.531824)">Wind construction factor</text>
   </g>
   <g id="text_31">
    <text style="fill: #2b2b2b; font: 7.2px 'Arial'; text-anchor: start" x="149.411213" y="267.531824" transform="rotate(-0 149.411213 267.531824)">2.65</text>
   </g>
   <g id="text_32">
    <text style="fill: #2b2b2b; font: 7.2px 'Arial'" transform="translate(31.154882 290.834763)">Wind mfg + installation</text>
    <text style="fill: #2b2b2b; font: 7.2px 'Arial'" transform="translate(45.367007 298.220478)">(literature median)</text>
   </g>
   <g id="text_33">
    <text style="fill: #2b2b2b; font: 7.2px 'Arial'; text-anchor: start" x="222.466961" y="294.525933" transform="rotate(-0 222.466961 294.525933)">8.1</text>
   </g>
   <g id="text_34">
    <text style="fill: #2b2b2b; font: 7.2px 'Arial'" transform="translate(44.166632 317.827185)">Wind sector model</text>
    <text style="fill: #2b2b2b; font: 7.2px 'Arial'" transform="translate(41.351882 325.128525)">(annual installation)</text>
   </g>
   <g id="text_35">
    <text style="fill: #2b2b2b; font: 7.2px 'Arial'" transform="translate(179.652566 329.219162)">≈10 job-years/MW</text>
    <text style="fill: #2b2b2b; font: 7.2px 'Arial'" transform="translate(197.805566 336.400082)">(+0.4 O&amp;M*)</text>
   </g>
   <g id="patch_8">
    <path d="M 223.376383 314.405986 
Q 232.277333 316.775235 241.178284 319.144484 
" style="fill: none; stroke: #b8b8b8; stroke-width: 0.65; stroke-linecap: round"/>
   </g>
   <g id="text_36">
    <text style="fill: #555555; font: 7px 'Arial'" transform="translate(165.362835 304.519902)">Not a data-centre</text>
    <text style="fill: #555555; font: 7px 'Arial'" transform="translate(165.362835 311.422667)">rule of thumb</text>
   </g>
   <g id="text_37">
    <text style="fill: #2b2b2b; font: 8.2px 'Arial'" transform="translate(109.062992 236.744519)">Energy comparators</text>
    <text style="fill: #2b2b2b; font: 8.2px 'Arial'" transform="translate(109.062992 245.633575)">(job-years/MW)</text>
   </g>
   <g id="line2d_48">
    <defs>
     <path id="me8ff290103" d="M 0 3.2 
C 0.84865 3.2 1.662656 2.862828 2.262742 2.262742 
C 2.862828 1.662656 3.2 0.84865 3.2 0 
C 3.2 -0.84865 2.862828 -1.662656 2.262742 -2.262742 
C 1.662656 -2.862828 0.84865 -3.2 0 -3.2 
C -0.84865 -3.2 -1.662656 -2.862828 -2.262742 -2.262742 
C -2.862828 -1.662656 -3.2 -0.84865 -3.2 0 
C -3.2 0.84865 -2.862828 1.662656 -2.262742 2.262742 
C -1.662656 2.862828 -0.84865 3.2 0 3.2 
z
" style="stroke: #2b2b2b; stroke-width: 0.8"/>
    </defs>
    <g clip-path="url(#pb81123192e)">
     <use xlink:href="#me8ff290103" x="144.585512" y="265.670512" style="fill: #2b2b2b; stroke: #2b2b2b; stroke-width: 0.8"/>
    </g>
   </g>
   <g id="line2d_49">
    <g clip-path="url(#pb81123192e)">
     <use xlink:href="#me8ff290103" x="217.64126" y="292.664621" style="fill: #2b2b2b; stroke: #2b2b2b; stroke-width: 0.8"/>
    </g>
   </g>
   <g id="line2d_50">
    <g clip-path="url(#pb81123192e)">
     <use xlink:href="#me8ff290103" x="243.110236" y="319.65873" style="fill: #2b2b2b; stroke: #2b2b2b; stroke-width: 0.8"/>
    </g>
   </g>
  </g>
  <g id="text_38">
   <text style="fill: #555555; font: italic 7px 'Arial'" transform="translate(56.983059 352.410742)">* O&amp;M term: operating jobs/MW (different time basis).</text>
   <text style="fill: #555555; font: italic 7px 'Arial'" transform="translate(66.29798 359.495748)">Independent axes preserve source-native units.</text>
   <text style="fill: #555555; font: italic 7px 'Arial'" transform="translate(75.77259 366.594273)">Values are not comparable across facets.</text>
  </g>
  <g id="legend_1">
   <g id="line2d_51">
    <path d="M 84.769777 377.133969 
L 91.769777 377.133969 
L 98.769777 377.133969 
" style="fill: none; stroke: #000000; stroke-opacity: 0; stroke-width: 1.5; stroke-linecap: square"/>
    <defs>
     <path id="m1404bec9ed" d="M -3 3 
L 3 3 
L 3 -3 
L -3 -3 
z
" style="stroke: #2b2b2b; stroke-width: 0.65; stroke-linejoin: miter"/>
    </defs>
    <g>
     <use xlink:href="#m1404bec9ed" x="91.769777" y="377.133969" style="fill: #0072b2; stroke: #2b2b2b; stroke-width: 0.65; stroke-linejoin: miter"/>
    </g>
   </g>
   <g id="text_39">
    <text style="fill: #2b2b2b; font: 7px 'Arial'; text-anchor: start" x="101.919777" y="379.583969" transform="rotate(-0 101.919777 379.583969)">Study bottom-up estimate</text>
   </g>
   <g id="line2d_52">
    <path d="M 84.769777 385.577719 
L 91.769777 385.577719 
L 98.769777 385.577719 
" style="fill: none; stroke: #000000; stroke-opacity: 0; stroke-width: 1.5; stroke-linecap: square"/>
    <defs>
     <path id="m6680fbdd7a" d="M 0 2.9 
C 0.769089 2.9 1.506782 2.594438 2.05061 2.05061 
C 2.594438 1.506782 2.9 0.769089 2.9 0 
C 2.9 -0.769089 2.594438 -1.506782 2.05061 -2.05061 
C 1.506782 -2.594438 0.769089 -2.9 0 -2.9 
C -0.769089 -2.9 -1.506782 -2.594438 -2.05061 -2.05061 
C -2.594438 -1.506782 -2.9 -0.769089 -2.9 0 
C -2.9 0.769089 -2.594438 1.506782 -2.05061 2.05061 
C -1.506782 2.594438 -0.769089 2.9 0 2.9 
z
" style="stroke: #2b2b2b"/>
    </defs>
    <g>
     <use xlink:href="#m6680fbdd7a" x="91.769777" y="385.577719" style="fill: #2b2b2b; stroke: #2b2b2b"/>
    </g>
   </g>
   <g id="text_40">
    <text style="fill: #2b2b2b; font: 7px 'Arial'; text-anchor: start" x="101.919777" y="388.027719" transform="rotate(-0 101.919777 388.027719)">Verified external estimate</text>
   </g>
   <g id="line2d_53">
    <path d="M 84.769777 394.02475 
L 91.769777 394.02475 
L 98.769777 394.02475 
" style="fill: none; stroke: #000000; stroke-opacity: 0; stroke-width: 1.5; stroke-linecap: square"/>
    <defs>
     <path id="md2ad5ad7a3" d="M 0 2.9 
C 0.769089 2.9 1.506782 2.594438 2.05061 2.05061 
C 2.594438 1.506782 2.9 0.769089 2.9 0 
C 2.9 -0.769089 2.594438 -1.506782 2.05061 -2.05061 
C 1.506782 -2.594438 0.769089 -2.9 0 -2.9 
C -0.769089 -2.9 -1.506782 -2.594438 -2.05061 -2.05061 
C -2.594438 -1.506782 -2.9 -0.769089 -2.9 0 
C -2.9 0.769089 -2.594438 1.506782 -2.05061 2.05061 
C -1.506782 2.594438 -0.769089 2.9 0 2.9 
z
" style="stroke: #555555; stroke-width: 1.2"/>
    </defs>
    <g>
     <use xlink:href="#md2ad5ad7a3" x="91.769777" y="394.02475" style="fill: #ffffff; stroke: #555555; stroke-width: 1.2"/>
    </g>
   </g>
   <g id="text_41">
    <text style="fill: #2b2b2b; font: 7px 'Arial'; text-anchor: start" x="101.919777" y="396.47475" transform="rotate(-0 101.919777 396.47475)">Projected / advocacy estimate</text>
   </g>
  </g>
 </g>
 <defs>
  <clipPath id="pf9ede93dc2">
   <rect x="109.062992" y="36.992126" width="150.80315" height="66.258268"/>
  </clipPath>
  <clipPath id="pc6254026b8">
   <rect x="109.062992" y="144.312851" width="150.80315" height="66.258268"/>
  </clipPath>
  <clipPath id="pb81123192e">
   <rect x="109.062992" y="251.633575" width="150.80315" height="87.460913"/>
  </clipPath>
 </defs>
</svg>
